<mxfile host="app.diagrams.net" modified="2022-10-22T03:24:51.358Z" agent="5.0 (Windows NT 10.0; Win64; x64) AppleWebKit/537.36 (KHTML, like Gecko) Chrome/106.0.0.0 Safari/537.36" etag="aK76UCoLUCQH9Pu384Jt" version="20.5.0" type="github">
  <diagram id="C5RBs43oDa-KdzZeNtuy" name="Page-1">
    <mxGraphModel dx="813" dy="431" grid="1" gridSize="10" guides="1" tooltips="1" connect="1" arrows="1" fold="1" page="1" pageScale="1" pageWidth="827" pageHeight="1169" math="0" shadow="0">
      <root>
        <mxCell id="WIyWlLk6GJQsqaUBKTNV-0" />
        <mxCell id="WIyWlLk6GJQsqaUBKTNV-1" parent="WIyWlLk6GJQsqaUBKTNV-0" />
        <mxCell id="6-wqXmz6b1XW5F9DF1cr-30" style="edgeStyle=none;rounded=0;orthogonalLoop=1;jettySize=auto;html=1;strokeWidth=1;startArrow=none;startFill=0;endArrow=block;endFill=0;endSize=10;" edge="1" parent="WIyWlLk6GJQsqaUBKTNV-1" source="6-wqXmz6b1XW5F9DF1cr-10" target="6-wqXmz6b1XW5F9DF1cr-14">
          <mxGeometry relative="1" as="geometry" />
        </mxCell>
        <mxCell id="6-wqXmz6b1XW5F9DF1cr-10" value="GameManager" style="swimlane;fontStyle=1;align=center;verticalAlign=top;childLayout=stackLayout;horizontal=1;startSize=26;horizontalStack=0;resizeParent=1;resizeParentMax=0;resizeLast=0;collapsible=1;marginBottom=0;" vertex="1" parent="WIyWlLk6GJQsqaUBKTNV-1">
          <mxGeometry x="285" y="240" width="180" height="210" as="geometry" />
        </mxCell>
        <mxCell id="6-wqXmz6b1XW5F9DF1cr-11" value="+ OnGameClear: Action&#xa;+ OnGameClearButton: Action&#xa;&#xa;+ OnGameOver: Action&#xa;+ OnGameOverButton: Action" style="text;strokeColor=none;fillColor=none;align=left;verticalAlign=top;spacingLeft=4;spacingRight=4;overflow=hidden;rotatable=0;points=[[0,0.5],[1,0.5]];portConstraint=eastwest;" vertex="1" parent="6-wqXmz6b1XW5F9DF1cr-10">
          <mxGeometry y="26" width="180" height="94" as="geometry" />
        </mxCell>
        <mxCell id="6-wqXmz6b1XW5F9DF1cr-12" value="" style="line;strokeWidth=1;fillColor=none;align=left;verticalAlign=middle;spacingTop=-1;spacingLeft=3;spacingRight=3;rotatable=0;labelPosition=right;points=[];portConstraint=eastwest;strokeColor=inherit;" vertex="1" parent="6-wqXmz6b1XW5F9DF1cr-10">
          <mxGeometry y="120" width="180" height="8" as="geometry" />
        </mxCell>
        <mxCell id="6-wqXmz6b1XW5F9DF1cr-13" value="# Awake(): void&#xa;# CheckInstance(): boo;&#xa;- Start(): void&#xa;+ GameClear: void&#xa;+ GameOver: void&#xa;" style="text;strokeColor=none;fillColor=none;align=left;verticalAlign=top;spacingLeft=4;spacingRight=4;overflow=hidden;rotatable=0;points=[[0,0.5],[1,0.5]];portConstraint=eastwest;" vertex="1" parent="6-wqXmz6b1XW5F9DF1cr-10">
          <mxGeometry y="128" width="180" height="82" as="geometry" />
        </mxCell>
        <mxCell id="6-wqXmz6b1XW5F9DF1cr-14" value="SingletonMonoBehaviour&lt;T&gt;" style="swimlane;fontStyle=1;align=center;verticalAlign=middle;childLayout=stackLayout;horizontal=1;startSize=26;horizontalStack=0;resizeParent=1;resizeParentMax=0;resizeLast=0;collapsible=1;marginBottom=0;" vertex="1" parent="WIyWlLk6GJQsqaUBKTNV-1">
          <mxGeometry x="260" y="40" width="230" height="110" as="geometry" />
        </mxCell>
        <mxCell id="6-wqXmz6b1XW5F9DF1cr-15" value="+ Instance: &lt;T&gt;" style="text;strokeColor=none;fillColor=none;align=left;verticalAlign=top;spacingLeft=4;spacingRight=4;overflow=hidden;rotatable=0;points=[[0,0.5],[1,0.5]];portConstraint=eastwest;fontStyle=4" vertex="1" parent="6-wqXmz6b1XW5F9DF1cr-14">
          <mxGeometry y="26" width="230" height="24" as="geometry" />
        </mxCell>
        <mxCell id="6-wqXmz6b1XW5F9DF1cr-16" value="" style="line;strokeWidth=1;fillColor=none;align=left;verticalAlign=middle;spacingTop=-1;spacingLeft=3;spacingRight=3;rotatable=0;labelPosition=right;points=[];portConstraint=eastwest;strokeColor=inherit;" vertex="1" parent="6-wqXmz6b1XW5F9DF1cr-14">
          <mxGeometry y="50" width="230" height="8" as="geometry" />
        </mxCell>
        <mxCell id="6-wqXmz6b1XW5F9DF1cr-17" value="# Awake(): void" style="text;strokeColor=none;fillColor=none;align=left;verticalAlign=top;spacingLeft=4;spacingRight=4;overflow=hidden;rotatable=0;points=[[0,0.5],[1,0.5]];portConstraint=eastwest;fontStyle=2;horizontal=1;labelBackgroundColor=none;" vertex="1" parent="6-wqXmz6b1XW5F9DF1cr-14">
          <mxGeometry y="58" width="230" height="22" as="geometry" />
        </mxCell>
        <mxCell id="6-wqXmz6b1XW5F9DF1cr-18" value="# CheckInstance(): bool" style="text;strokeColor=none;fillColor=none;align=left;verticalAlign=top;spacingLeft=4;spacingRight=4;overflow=hidden;rotatable=0;points=[[0,0.5],[1,0.5]];portConstraint=eastwest;fontStyle=0;horizontal=1;labelBackgroundColor=none;" vertex="1" parent="6-wqXmz6b1XW5F9DF1cr-14">
          <mxGeometry y="80" width="230" height="30" as="geometry" />
        </mxCell>
      </root>
    </mxGraphModel>
  </diagram>
</mxfile>
